# xmcd CD database file
#
# Track frame offsets:
#	150
#	18004
#	34610
#	50689
#	81011
#	101730
#	135951
#	155784
#	173927
#	193636
#	228634
#	241744
#	256993
#	275432
#	278929
#	292621
#
# Disc length: 4151 seconds
#
# Revision: 2
# Processed by: cddbd v1.5.2PL0 Copyright (c) Steve Scherf et al.
# Submitted via: CDex 1.75
#
DISCID=d3103510
DTITLE=Coastline Band - Lost At Sea, Live Bait 2
DYEAR=1900
DGENRE=Beach Music
TTITLE0=Don't Let the Green Grass Fool Ya [Live]
TTITLE1=Harlem Hit Parade [Live]
TTITLE2=Stagger Lee [Live]
TTITLE3=Old Love [Live]
TTITLE4=Part Time Party Time Man [Live]
TTITLE5=New Poo Pah Doo [Live]
TTITLE6=Hey Bartender [Live]
TTITLE7=How Sweet It Is [Live]
TTITLE8=Kiss [Live]
TTITLE9=Purple Rain [Live]
TTITLE10=Nip Sip [Live]
TTITLE11=Some Kind Of Wonderful [Live]
TTITLE12=Sweet Home Chicago [Live]
TTITLE13=Poodlee Doo In The Key Of C [Live]
TTITLE14=Such A Long Time Ago [Live]
TTITLE15=Take It All [Live]
EXTD=
EXTT0=
EXTT1=
EXTT2=
EXTT3=
EXTT4=
EXTT5=
EXTT6=
EXTT7=
EXTT8=
EXTT9=
EXTT10=
EXTT11=
EXTT12=
EXTT13=
EXTT14=
EXTT15=
PLAYORDER=
